PathFileType	4	(X/Y/Z)	E:\3-PhD\Data\MocapData\ElaboratedData\012\pre\dynamicElaborations\Run_baselineB1\Run_baselineB1.trc
DataRate	CameraRate	NumFrames	NumMarkers	Units	OrigDataRate	OrigDataStartFrame	OrigNumFrames
200	200	4	56	mm	200	649	93
Frame#	Time	FHD			LBHD			RBHD			C7			T10			CLAV			LSHO			LUUPA			LMUPA			LDUPA			LLEP			LMEP			LRAD			LUL			LRFIN			RSHO			RUPA1			RMUPA			RDUPA			RLEP			RMEP			RRAD			RUL			RUFIN			LASI			RASI			USACR			LSACR			RSACR			LTHI1			LTHI2			LTHI3			LTHI4			LLFC			LTIB1			LTIB2			LTIB3			LTIB4			LHEE			LMT1			LMT5			LMT2			RTHI			RTHI2			RTHI3			RTHI4			RLFC			RTIB1			RTIB2			RTIB3			RTIB4			RLMAL			RHEE			RMT1			RMT2			RMT5		
		X1	Y1	Z1	X2	Y2	Z2	X3	Y3	Z3	X4	Y4	Z4	X5	Y5	Z5	X6	Y6	Z6	X7	Y7	Z7	X8	Y8	Z8	X9	Y9	Z9	X10	Y10	Z10	X11	Y11	Z11	X12	Y12	Z12	X13	Y13	Z13	X14	Y14	Z14	X15	Y15	Z15	X16	Y16	Z16	X17	Y17	Z17	X18	Y18	Z18	X19	Y19	Z19	X20	Y20	Z20	X21	Y21	Z21	X22	Y22	Z22	X23	Y23	Z23	X24	Y24	Z24	X25	Y25	Z25	X26	Y26	Z26	X27	Y27	Z27	X28	Y28	Z28	X29	Y29	Z29	X30	Y30	Z30	X31	Y31	Z31	X32	Y32	Z32	X33	Y33	Z33	X34	Y34	Z34	X35	Y35	Z35	X36	Y36	Z36	X37	Y37	Z37	X38	Y38	Z38	X39	Y39	Z39	X40	Y40	Z40	X41	Y41	Z41	X42	Y42	Z42	X43	Y43	Z43	X44	Y44	Z44	X45	Y45	Z45	X46	Y46	Z46	X47	Y47	Z47	X48	Y48	Z48	X49	Y49	Z49	X50	Y50	Z50	X51	Y51	Z51	X52	Y52	Z52	X53	Y53	Z53	X54	Y54	Z54	X55	Y55	Z55	X56	Y56	Z56	
649	3.240000	-2764.817613	1743.113686	456.298161	-2920.175465	1724.847380	354.143155	-2908.760562	1713.970915	499.650464	-2973.661699	1568.013317	414.050272	-3147.033300	1272.534862	345.238987	-2861.105498	1450.191873	430.446870	-2837.553839	1567.630212	303.471939	-2839.540886	1386.409551	153.442560	-2818.019026	1349.459559	179.452300	-2846.942173	1319.719218	134.215483	-2842.405867	1227.651949	122.403529	-2927.995501	1220.817680	155.654479	-2785.623007	1030.618509	320.700244	-2760.571794	1005.495103	252.484611	-2729.294973	966.100808	350.588632	-2924.919410	1493.921343	594.497143	-3133.655344	1368.026507	657.573294	-3114.420058	1325.099977	671.110297	-3173.544103	1307.987457	660.049271	-3208.661510	1250.975809	674.020559	-3216.491621	1230.440206	594.532809	-3028.982389	1026.245604	674.016887	-3082.748057	993.158503	719.549334	-2982.117011	956.046268	695.775400	-3062.998322	1004.311610	237.229099	-3080.008898	1023.623694	465.060242	-3210.685571	1148.123503	344.338443	-3233.250593	1117.504106	310.581096	-3239.580139	1121.300869	367.272031	-3241.478422	772.502135	159.366718	-3231.376331	687.765254	168.052904	-3188.291036	675.761931	180.798647	-3275.414805	647.405651	171.521413	-3352.559152	510.430611	192.049977	-3510.345185	416.607253	269.244014	-3563.089929	439.431281	212.643377	-3554.349840	403.863580	243.539940	-3629.084872	393.443072	279.702304	-3800.186902	472.183390	317.976759	-3818.791517	261.751677	350.239205	-3851.211369	282.456635	264.520746	-3824.389738	250.341759	304.891801	-3075.016393	746.186062	542.026239	-3016.179272	718.473856	545.834561	-2983.136394	737.724378	553.618303	-2992.907584	640.588297	533.288258	-2940.720333	536.845646	516.719027	-2898.422834	412.064959	464.909260	-2980.687800	342.598283	476.282774	-2938.609426	332.848950	464.477647	-2928.489243	290.817787	426.291595	-3016.523880	130.402878	377.123146	-3048.753315	97.757645	314.897580	-2828.685423	111.387809	350.520846	-2839.630954	101.769476	390.507259	-2886.263358	63.199464	423.932116	
650	3.245000	-2736.145066	1742.969651	456.930835	-2891.781856	1724.117241	355.420981	-2879.728525	1713.916827	501.477049	-2944.859181	1567.780059	415.887347	-3118.213863	1273.932711	345.045950	-2832.752610	1449.443161	431.646046	-2808.279751	1566.199500	303.518898	-2815.451172	1385.764069	152.031603	-2795.079541	1347.931477	177.907400	-2824.538582	1319.531561	132.050791	-2822.591088	1227.947448	117.908959	-2907.921309	1222.649688	152.350484	-2771.116217	1017.733505	304.479161	-2746.445050	996.424900	234.596753	-2717.893640	948.958771	330.141850	-2897.333095	1491.561042	596.553271	-3102.523453	1355.672804	656.239155	-3081.098276	1313.597612	669.122759	-3139.416781	1293.522409	657.804200	-3170.957876	1234.504840	671.022407	-3178.832123	1216.161752	590.845393	-2980.113185	1020.260470	659.689905	-3030.927240	982.560707	705.159219	-2929.510400	952.189820	677.499495	-3031.442305	1005.442666	237.170216	-3052.815742	1024.540994	465.222432	-3181.859001	1147.703178	341.652530	-3203.618191	1117.026186	307.920369	-3210.559261	1120.915291	364.903483	-3204.014240	767.984817	158.271186	-3191.378985	683.723210	167.718861	-3148.194242	672.927365	181.111164	-3234.163967	641.954018	170.902837	-3307.625222	503.698157	192.170731	-3467.392990	417.254997	270.485386	-3519.547749	441.043417	214.857812	-3512.067858	405.907178	246.544782	-3587.782925	399.334563	282.095585	-3755.686451	485.443405	320.742176	-3780.534159	275.950134	354.867073	-3812.307982	296.680869	268.777066	-3786.632278	264.207583	309.754227	-3052.762369	743.003185	539.693079	-2994.806311	714.122813	544.511627	-2961.795639	732.301941	552.533175	-2973.084365	635.785359	531.169156	-2922.574830	530.889654	515.057167	-2882.041630	405.230844	464.033465	-2965.791875	337.370785	473.991408	-2923.615169	326.748139	463.116372	-2913.683562	284.527609	425.288972	-3003.659767	126.067721	375.378373	-3036.050413	94.573901	311.667132	-2816.198372	103.178037	350.855058	-2827.967826	94.164811	391.037892	-2875.938123	57.809607	424.697910	
651	3.250000	-2707.505905	1742.536149	457.473032	-2863.425984	1723.053654	356.623873	-2850.722379	1713.710950	503.443444	-2916.176061	1567.253876	417.833724	-3089.406409	1274.911939	344.997209	-2804.416444	1448.368405	432.775930	-2779.210600	1564.590545	303.555397	-2791.754550	1385.219948	150.514920	-2772.443204	1346.532134	176.148436	-2802.515497	1319.489571	129.780418	-2803.214143	1228.564463	113.164788	-2888.047263	1224.601291	149.148837	-2757.199857	1006.076235	287.251198	-2732.845253	988.679633	215.914846	-2707.344146	933.444226	308.420801	-2869.567489	1488.918000	598.617894	-3070.355526	1343.088568	654.918583	-3046.755871	1301.914624	666.929345	-3103.961932	1279.045813	655.705921	-3131.957792	1218.047538	667.657932	-3140.158549	1201.942012	586.950289	-2930.468486	1015.725153	644.952182	-2977.896826	973.469108	690.219950	-2876.139587	950.258204	658.815662	-3000.060542	1006.237718	237.160440	-3025.554685	1025.287661	465.498144	-3153.120455	1146.717507	338.965971	-3173.993366	1116.053424	305.290380	-3181.420127	1120.007680	362.633571	-3166.260950	763.272836	157.452052	-3150.925314	679.566473	167.569174	-3107.648603	670.067533	181.624469	-3192.347028	636.361273	170.513153	-3261.842443	496.939879	192.543812	-3423.402933	417.674002	271.903051	-3474.670810	442.308518	216.950779	-3468.414588	407.651269	249.355336	-3544.866273	404.677774	284.213973	-3709.679388	497.517736	323.371104	-3740.357010	288.794086	357.904749	-3771.271228	310.081688	271.514046	-3746.840132	276.984531	312.941326	-3030.790529	739.641986	537.063333	-2973.529285	709.657071	543.083155	-2940.713508	726.613796	550.963673	-2953.686907	630.775213	528.637283	-2904.979953	524.739541	513.035511	-2866.830123	398.157073	462.630173	-2952.185087	332.147815	471.674642	-2909.967616	320.555633	461.497856	-2900.639322	278.167584	423.937372	-2993.034844	121.995406	374.021879	-3026.253191	91.434490	308.928128	-2806.471703	95.189232	350.716304	-2818.925825	86.939654	391.122834	-2868.184486	53.094915	425.355688	
652	3.255000	-2678.901481	1741.836310	457.951222	-2835.106247	1721.701297	357.761452	-2821.813559	1713.318606	505.372398	-2887.608207	1566.438499	419.856852	-3060.602508	1275.417376	345.055636	-2776.083216	1446.988177	433.813518	-2750.352027	1562.846664	303.560746	-2768.438159	1384.872657	148.864365	-2750.084220	1345.341067	174.129348	-2780.862906	1319.695898	127.360024	-2784.263149	1229.603649	108.161928	-2868.351199	1226.740046	146.029870	-2743.752474	995.881844	269.139982	-2719.728887	982.400009	196.569901	-2697.533986	919.812394	285.624214	-2841.580018	1486.047830	600.649317	-3037.074962	1330.420569	653.620492	-3011.334719	1290.211562	664.533578	-3067.140075	1264.739792	653.737482	-3091.637492	1201.829322	663.937449	-3100.483551	1187.973365	582.851638	-2880.186727	1012.822228	629.871426	-2923.805254	966.139358	674.768440	-2822.178795	950.459815	639.848145	-2968.858383	1006.663989	237.238113	-2998.280885	1025.824954	465.896274	-3124.446219	1145.235403	336.281315	-3144.328144	1114.641930	302.722944	-3152.179287	1118.650264	360.425236	-3128.237994	758.461143	156.892157	-3110.042803	675.403121	167.575665	-3066.684073	667.295247	182.311011	-3149.980910	630.749003	170.335055	-3215.214619	490.282592	193.160800	-3378.332397	417.912955	273.500718	-3428.527440	443.250790	218.878786	-3423.431257	409.094417	251.952711	-3500.371459	409.479396	286.140323	-3662.402546	508.364140	325.746992	-3698.375712	300.185771	359.327791	-3728.105551	322.485740	272.680559	-3705.035202	288.549230	314.429117	-3009.095132	736.134063	534.228663	-2952.347338	705.072790	541.591072	-2919.870802	720.673804	548.938609	-2934.713135	625.585922	525.783052	-2887.963984	518.391961	510.670419	-2852.718853	390.937547	460.612013	-2939.742547	326.955669	469.278300	-2897.550567	314.351713	459.528988	-2889.237117	271.848093	422.101164	-2984.476639	118.290919	372.922873	-3019.109864	88.316454	306.557709	-2799.266820	87.810572	350.106156	-2812.271916	80.442970	390.744324	-2862.698631	49.259496	425.827867	
